<svg id="Capa_1" enable-background="new 0 0 511.791 511.791" height="512" viewBox="0 0 511.791 511.791" width="512" xmlns="http://www.w3.org/2000/svg"><g><path d="m411.23 469.944c-1.203-9.696-6.11-18.342-13.818-24.347-7.707-6.005-17.288-8.647-26.986-7.444-20.015 2.485-34.276 20.79-31.791 40.812l.095.751c1.203 9.696 6.11 18.342 13.818 24.347 6.489 5.056 14.309 7.729 22.405 7.729 1.52 0 3.05-.094 4.581-.284 20.015-2.485 34.276-20.79 31.791-40.812zm-33.544 26.677c-5.72.712-11.374-.849-15.92-4.392-4.547-3.542-7.441-8.643-8.152-14.368l-.094-.751c-1.467-11.808 6.946-22.606 18.753-24.072.904-.112 1.807-.168 2.703-.168 4.775 0 9.39 1.577 13.217 4.56 4.547 3.542 7.441 8.643 8.152 14.368l.095.751c1.466 11.808-6.947 22.606-18.754 24.072z"/><path d="m261.652 403.948c10.226-6.492 17.032-17.91 17.032-30.894v-.764c0-17.815-12.804-32.687-29.691-35.918-.151-.817-.291-1.639-.46-2.447-.488-2.315-1.079-4.603-1.722-6.872 3.154-.407 6.186-1.209 9.037-2.369 6.229 14.646 21.623 24.066 38.17 22.021 20.016-2.488 34.275-20.794 31.786-40.824-.164-1.297-.235-2.615-.212-3.936.214-14.132 11.012-25.882 25.126-27.333 14.491-1.499 27.855 8.54 30.4 22.867 1.358 7.674-.432 15.338-5.038 21.579-4.611 6.245-11.38 10.208-19.062 11.162-20.014 2.488-34.273 20.793-31.788 40.808l3.36 27.05c1.204 9.697 6.111 18.344 13.818 24.348 6.488 5.053 14.307 7.726 22.403 7.725 1.521 0 3.052-.094 4.586-.285 9.697-1.205 18.344-6.112 24.347-13.819 5.498-7.058 8.177-15.691 7.664-24.539 13.169-7.087 24.685-17.032 33.528-29.001 3.749-5.08 7.01-10.47 9.737-16.084 1.205.121 2.415.205 3.635.205 4.385 0 8.841-.794 13.169-2.47 18.807-7.284 28.182-28.511 20.898-47.314l-.276-.717c-5.311-13.713-18.035-22.402-31.83-23.284-1.473-4.811-3.302-9.497-5.476-14.018 9.091-9.386 12.775-23.297 8.687-36.378 11.05-10.085 19.796-22.539 25.452-36.3 5.022-12.223 7.598-25.011 7.653-38.008.018-4.142-3.326-7.515-7.468-7.532-.012 0-.021 0-.033 0-4.127 0-7.481 3.337-7.499 7.468-.047 11.054-2.243 21.945-6.527 32.371-5.395 13.124-14.098 24.857-25.167 33.93-2.507 2.055-3.41 5.487-2.24 8.509l1.03 2.66c4.297 11.097-1.236 23.621-12.336 27.918-5.371 2.082-11.231 1.946-16.503-.384-5.271-2.33-9.321-6.573-11.404-11.952l-9.85-25.419c-4.296-11.09 1.232-23.609 12.326-27.907 11.097-4.301 19.7-12.736 24.227-23.752 4.527-11.013 4.327-23.084-.562-33.988-9.149-20.42-32.811-30.41-53.868-22.741-20.471 7.445-32.159 29.006-27.187 50.16.448 1.898 1.045 3.829 1.786 5.765 2.836 7.327 1.379 15.281-3.133 21.073-3.85-26.36-17.965-49.442-38.075-65.115 8.335-23.593 26.784-42.748 50.207-51.817.541-.211 1.091-.413 1.634-.611 42.206-15.383 89.657 4.66 108.014 45.624 1.26 2.818 2.359 5.658 3.269 8.439 1.287 3.938 5.522 6.089 9.459 4.799 3.937-1.287 6.086-5.521 4.799-9.458-1.07-3.276-2.359-6.607-3.835-9.907-21.561-48.114-77.277-71.654-126.851-53.586-.649.238-1.299.477-1.921.719-18.392 7.122-34.176 19.549-45.538 35.291-1.825-15.059-7.059-29.583-15.543-42.625-.391-.604-.783-1.196-1.151-1.729-13.689-20.151-34.21-34.692-57.781-40.945-23.611-6.263-48.658-3.771-70.539 7.017-4.203 2.08-8.295 4.463-12.171 7.09-16.68 11.341-21.03 34.138-9.697 50.816 5.488 8.081 13.797 13.539 23.396 15.371 9.597 1.832 19.331-.182 27.418-5.675 1.089-.741 2.238-1.412 3.417-1.993 12.667-6.247 28.047-1.988 35.771 9.908 2.455 3.781 3.914 8.105 4.338 12.565-18.066 2.036-35.285 8.911-49.826 19.943-.39-.501-.767-1.015-1.127-1.547-11.335-16.683-34.126-21.039-50.809-9.708l-22.55 15.32c-16.681 11.333-21.036 34.129-9.707 50.82 7.07 10.399 18.595 16.005 30.312 16.004 4.972 0 9.975-1.027 14.691-3.108-.532 4.218-.815 8.499-.815 12.752 0 20.169 16.408 36.577 36.577 36.577 19.237 0 35.041-14.93 36.462-33.809 18.093-1.945 35.3-8.786 50.126-20.012 3.442 4.377 5.607 9.8 5.914 15.705.404 7.785-2.313 15.169-7.65 20.792-5.345 5.629-12.551 8.729-20.291 8.729-20.169 0-36.577 16.408-36.577 36.577v7.059c-1-.663-1.998-1.328-3.022-1.958-18.339-11.281-39.44-16.304-61.039-14.526-21.235 1.748-41.002 9.871-57.163 23.489-3.167 2.669-3.571 7.401-.902 10.568s7.4 3.572 10.568.902c13.568-11.434 30.874-18.541 48.729-20.011 18.386-1.515 36.35 2.759 51.949 12.354 3.863 2.375 7.502 5.036 10.881 7.912v1.471c0 16.146 10.52 29.872 25.062 34.709 1.3 3.627 2.366 7.375 3.185 11.185-16.166 3.782-28.246 18.306-28.246 35.609v.764c0 20.169 16.408 36.577 36.577 36.577 1.534 0 3.042-.106 4.527-.29-.393 3.491-1.629 6.87-3.661 9.818-6.752 9.798-20.214 12.28-30.009 5.53l-22.452-15.472c-4.747-3.269-7.937-8.191-8.979-13.859-1.044-5.668.182-11.403 3.454-16.15 6.745-9.797 9.107-21.613 6.65-33.272-2.458-11.649-9.419-21.512-19.598-27.768-19.059-11.729-44.238-6.665-57.327 11.525-12.731 17.685-10.251 42.087 5.764 56.755 1.466 1.346 3.057 2.612 4.724 3.76 9.797 6.757 12.278 20.226 5.533 30.021-3.269 4.744-8.19 7.93-13.859 8.973-5.669 1.041-11.404-.184-16.153-3.457-3.29-2.264-6.456-4.782-9.402-7.479-30.255-27.745-36.66-73.303-15.231-108.328 2.162-3.533 1.05-8.15-2.483-10.312-3.53-2.161-8.149-1.05-10.312 2.483-25.164 41.129-17.642 94.629 17.894 127.217 3.462 3.168 7.174 6.121 11.028 8.773 6.174 4.254 13.336 6.468 20.678 6.468 2.223 0 4.463-.203 6.696-.614 9.609-1.768 17.955-7.171 23.498-15.217 11.434-16.603 7.231-39.427-9.373-50.88-1.099-.756-2.138-1.583-3.098-2.464-10.417-9.541-12.02-25.42-3.728-36.938 8.52-11.84 24.899-15.138 37.294-7.511 6.641 4.083 11.18 10.506 12.779 18.087 1.601 7.596.063 15.292-4.327 21.668-5.543 8.044-7.622 17.766-5.853 27.375 1.77 9.611 7.177 17.956 15.223 23.497l22.449 15.47c16.606 11.443 39.428 7.238 50.871-9.369 4.811-6.981 7.007-15.377 6.329-23.727zm206.46-102.408.276.717c4.298 11.094-1.232 23.617-12.327 27.914-11.094 4.297-23.616-1.233-27.915-12.332l-.274-.709c-4.297-11.094 1.233-23.616 12.328-27.914 2.554-.989 5.182-1.457 7.769-1.457 8.653 0 16.836 5.243 20.143 13.781zm-64.329-34.742c4.732 2.091 9.745 3.14 14.768 3.14 4.461 0 8.931-.828 13.216-2.488.141-.054.276-.117.416-.173 1.143 2.543 2.161 5.142 3.05 7.791-.15.056-.301.104-.45.161-18.808 7.285-28.182 28.512-20.896 47.322l.274.709c3.163 8.166 8.955 14.551 16.035 18.569-2.115 4.084-4.561 8.025-7.323 11.767-8.434 11.415-19.732 20.672-32.675 26.773-2.931 1.381-4.644 4.488-4.246 7.704l.351 2.835c.711 5.721-.849 11.375-4.39 15.921-3.54 4.545-8.642 7.44-14.362 8.151-5.723.711-11.377-.848-15.922-4.389-4.546-3.541-7.44-8.642-8.151-14.363l-3.36-27.05c-1.466-11.807 6.946-22.605 18.752-24.073 11.803-1.465 22.201-7.551 29.28-17.138 7.074-9.583 9.823-21.338 7.74-33.107-3.914-22.034-24.446-37.473-46.711-35.168-21.668 2.228-38.255 20.295-38.583 42.007-.035 2.017.075 4.057.327 6.048 1.467 11.806-6.945 22.605-18.748 24.072-10.835 1.337-20.804-5.629-23.519-15.907 5.682-6.001 9.364-13.916 9.948-22.667 13.949-5.413 26.603-13.866 36.846-24.655 13.787-14.521 22.734-32.263 26.188-51.435.453-.063.898-.137 1.354-.193.548-.069 1.097-.13 1.727-.19 9.813-1.017 19.572-.35 29.071 1.977.247.795.512 1.588.818 2.375l9.849 25.418c3.525 9.114 10.389 16.307 19.326 20.256zm-44.47-108.942c-.491-1.286-.891-2.573-1.185-3.817-3.232-13.751 4.383-27.777 17.716-32.626 13.704-4.993 29.1 1.5 35.05 14.781 3.19 7.114 3.323 14.98.376 22.151-2.948 7.175-8.55 12.668-15.772 15.467-12.869 4.986-21.316 16.5-23.035 29.298-8.984-1.732-18.13-2.213-27.294-1.44 14.165-9.232 20.474-27.459 14.144-43.814zm-175.258-95.289c-1.803.889-3.56 1.914-5.216 3.042-4.767 3.238-10.509 4.426-16.172 3.345-5.662-1.081-10.563-4.3-13.801-9.066-6.686-9.84-4.118-23.291 5.714-29.976 3.306-2.239 6.804-4.277 10.39-6.052 18.62-9.181 39.945-11.3 60.05-5.967 20.081 5.326 37.561 17.712 49.254 34.925.316.458.625.925.942 1.416 10.694 16.438 15.306 35.645 13.418 55.014-12.929-6.75-27.461-10.783-42.817-11.341-.54-7.145-2.845-14.093-6.775-20.147-11.862-18.27-35.502-24.802-54.987-15.193zm-44.895 108.042c-9.839 6.683-23.285 4.115-29.97-5.718-6.684-9.846-4.113-23.297 5.729-29.984l22.549-15.319c9.84-6.681 23.284-4.112 29.964 5.716.716 1.059 1.489 2.067 2.288 3.05-10.892 11.154-19.025 24.632-23.808 39.366-1.524-.036-3.06.387-4.385 1.285zm78.042 15.557c4.767-9.272 14.538-15.411 25.5-15.174 2.97.06 5.83.596 8.513 1.524-10.361 7.014-21.909 11.642-34.013 13.65zm3.328 104.622v-27.261c0-11.897 9.68-21.577 21.577-21.577 11.894 0 22.963-4.759 31.169-13.401 8.198-8.636 12.372-19.964 11.753-31.897-1.16-22.347-19.619-40.205-42.019-40.656-.307-.006-.61-.009-.917-.009-21.382 0-39.591 15.74-42.554 36.962-.275 1.98-.415 4.006-.415 6.02 0 11.897-9.68 21.577-21.577 21.577s-21.577-9.68-21.577-21.577c0-4.002.279-8.036.83-11.988 2.869-20.561 13.1-39.394 28.807-53.028 15.689-13.619 35.757-21.12 56.505-21.12.585 0 1.171.006 1.762.018 44.916.904 81.924 36.732 84.251 81.565 1.238 23.871-7.127 46.545-23.555 63.847-9.769 10.29-22.122 18.087-35.724 22.548-3.08 1.01-5.162 3.885-5.162 7.126v2.851c0 11.897-9.68 21.577-21.577 21.577s-21.577-9.679-21.577-21.577zm0 82.267v-.764c0-11.897 9.68-21.577 21.577-21.577s21.577 9.68 21.577 21.577v.764c0 11.897-9.68 21.577-21.577 21.577s-21.577-9.68-21.577-21.577z"/><path d="m313.687 423.467-.624-.429c-16.607-11.444-39.43-7.241-50.872 9.367s-7.24 39.43 9.369 50.874l.628.432c6.323 4.356 13.545 6.445 20.699 6.445 11.636 0 23.087-5.528 30.173-15.812 11.442-16.609 7.24-39.43-9.373-50.877zm-2.979 42.366c-6.751 9.798-20.214 12.276-30.013 5.524l-.628-.432c-9.796-6.75-12.275-20.213-5.525-30.01 4.18-6.066 10.934-9.327 17.798-9.327 4.222 0 8.485 1.233 12.219 3.806l.624.429c9.796 6.75 12.275 20.213 5.525 30.01z"/><path d="m28.733 219.541c5.49 8.082 13.799 13.542 23.396 15.375 2.312.441 4.633.66 6.938.66 7.255 0 14.343-2.165 20.477-6.332l.633-.43c8.081-5.49 13.541-13.799 15.373-23.396 1.833-9.597-.182-19.333-5.672-27.414s-13.799-13.542-23.396-15.374c-9.593-1.832-19.332.181-27.413 5.671l-.633.429c-8.081 5.49-13.542 13.799-15.374 23.396-1.834 9.597.181 19.333 5.671 27.415zm9.061-24.601c1.081-5.661 4.302-10.563 9.069-13.801l.633-.43c3.618-2.458 7.798-3.735 12.079-3.735 1.358 0 2.728.129 4.092.389 5.661 1.082 10.562 4.302 13.801 9.07 3.239 4.767 4.428 10.511 3.347 16.172s-4.302 10.562-9.068 13.801l-.633.429c-4.767 3.239-10.508 4.427-16.172 3.346-5.661-1.081-10.562-4.302-13.801-9.069-3.239-4.768-4.428-10.511-3.347-16.172z"/><path d="m43.368 48.109c3.737 1.783 8.216.2 9.999-3.54.472-.99 1.014-1.949 1.61-2.852 6.507-9.85 19.393-13.27 29.97-7.96 10.887 5.466 15.763 18.55 11.101 29.787-2.488 5.997-7.187 10.576-13.229 12.893-6.048 2.317-12.59 2.062-18.426-.722-3.736-1.782-8.215-.2-9.998 3.54l-7.607 15.944c-1.784 3.738-.199 8.215 3.539 9.999 1.042.497 2.142.733 3.225.733 2.8 0 5.487-1.576 6.773-4.272l4.701-9.851c7.615 1.918 15.749 1.479 23.163-1.364 9.922-3.804 17.634-11.315 21.715-21.15 7.661-18.466-.345-39.963-18.226-48.94-17.364-8.72-38.524-3.088-49.215 13.096-.978 1.479-1.864 3.048-2.635 4.663-1.784 3.736-.199 8.213 3.54 9.996z"/><path d="m40.374 126.055c1.042.497 2.142.733 3.225.733 2.801 0 5.488-1.576 6.774-4.273l.157-.33c1.783-3.738.198-8.215-3.54-9.998-3.735-1.782-8.216-.2-9.999 3.54l-.157.33c-1.783 3.738-.198 8.214 3.54 9.998z"/><path d="m469.392 364.284c-19.123-3.455-37.826 7.925-43.509 26.473-.521 1.698-.927 3.453-1.209 5.216-.653 4.09 2.133 7.936 6.223 8.59 4.102.653 7.937-2.134 8.59-6.223.173-1.08.421-2.153.738-3.19 3.458-11.286 14.848-18.207 26.499-16.105 11.988 2.166 20.362 13.339 19.066 25.436-.692 6.455-3.905 12.174-9.047 16.105-5.146 3.933-11.496 5.535-17.88 4.516-1.964-.313-3.972.165-5.584 1.332-1.61 1.167-2.692 2.925-3.007 4.89l-2.79 17.444c-.653 4.09 2.132 7.936 6.222 8.59.401.064.8.095 1.193.095 3.62 0 6.807-2.628 7.397-6.316l1.724-10.777c7.847-.313 15.524-3.032 21.834-7.855 8.442-6.454 13.717-15.837 14.852-26.423 2.131-19.881-11.623-38.24-31.312-41.798z"/><path d="m452.478 465.004c-4.096-.652-7.937 2.134-8.589 6.224l-.058.361c-.653 4.09 2.134 7.936 6.224 8.589.4.064.799.095 1.191.095 3.621 0 6.809-2.629 7.397-6.318l.058-.361c.654-4.091-2.133-7.936-6.223-8.59z"/><path d="m69.825 479.981-4.029-5.898c3.983-4.458 6.675-10.016 7.641-15.992 1.391-8.609-.76-17.177-6.056-24.126-9.946-13.05-28.502-16.23-42.243-7.245-13.345 8.729-18.072 26.064-10.993 40.327.648 1.306 1.396 2.58 2.221 3.787 2.337 3.419 7.003 4.298 10.424 1.961 3.42-2.337 4.298-7.004 1.961-10.424-.436-.638-.83-1.31-1.171-1.995-3.701-7.458-1.222-16.531 5.77-21.103 7.191-4.704 16.9-3.042 22.102 3.783 2.777 3.645 3.906 8.134 3.178 12.642-.729 4.511-3.204 8.412-6.97 10.985-3.42 2.336-4.299 7.003-1.963 10.423l7.743 11.335c1.453 2.126 3.806 3.271 6.2 3.27 1.457 0 2.93-.424 4.224-1.308 3.418-2.335 4.297-7.001 1.961-10.422z"/><path d="m79.794 494.575c-2.337-3.42-7.005-4.299-10.424-1.961-3.42 2.337-4.298 7.004-1.961 10.424l.16.234c1.453 2.126 3.805 3.269 6.199 3.269 1.457 0 2.931-.424 4.225-1.308 3.42-2.337 4.298-7.004 1.961-10.424z"/><path d="m436.867 43.327c1.558 3.838 5.929 5.687 9.77 4.13 3.838-1.558 5.687-5.931 4.129-9.77-.294-.725-.537-1.467-.724-2.204-2.041-8.073 2.301-16.416 10.101-19.406 8.023-3.079 17.161.6 20.802 8.371 1.944 4.149 2.098 8.776.433 13.028-1.666 4.255-4.91 7.544-9.136 9.263-3.837 1.561-5.682 5.936-4.121 9.773l5.172 12.716c1.185 2.912 3.989 4.676 6.95 4.676.94 0 1.897-.178 2.822-.555 3.837-1.561 5.683-5.936 4.122-9.773l-2.691-6.617c4.836-3.515 8.643-8.379 10.85-14.015 3.18-8.12 2.89-16.949-.817-24.861-6.961-14.858-24.426-21.89-39.755-16.013-14.89 5.708-23.175 21.653-19.273 37.087.352 1.405.813 2.808 1.366 4.17z"/><path d="m484.059 75.833c-3.834 1.568-5.671 5.947-4.104 9.781l.107.263c1.188 2.905 3.989 4.663 6.945 4.663.945 0 1.906-.18 2.836-.56 3.834-1.568 5.671-5.947 4.104-9.781l-.107-.263c-1.568-3.833-5.944-5.671-9.781-4.103z"/></g></svg>